<?xml version="1.0" encoding="UTF-8" standalone="no"?><svg xmlns="http://www.w3.org/2000/svg" xmlns:xlink="http://www.w3.org/1999/xlink" contentScriptType="application/ecmascript" contentStyleType="text/css" height="1130px" preserveAspectRatio="none" style="width:1912px;height:1130px;" version="1.1" viewBox="0 0 1912 1130" width="1912px" zoomAndPan="magnify"><defs><filter height="300%" id="f1ck1s8wntr9yi" width="300%" x="-1" y="-1"><feGaussianBlur result="blurOut" stdDeviation="2.0"/><feColorMatrix in="blurOut" result="blurOut2" type="matrix" values="0 0 0 0 0 0 0 0 0 0 0 0 0 0 0 0 0 0 .4 0"/><feOffset dx="4.0" dy="4.0" in="blurOut2" result="blurOut3"/><feBlend in="SourceGraphic" in2="blurOut3" mode="normal"/></filter></defs><g><text fill="#000000" font-family="sans-serif" font-size="18" lengthAdjust="spacingAndGlyphs" textLength="178" x="870.75" y="17.1035">Guice Class Diagram</text><!--class BindingScopingVisitor--><rect fill="#FEFECE" filter="url(#f1ck1s8wntr9yi)" height="99.1973" id="BindingScopingVisitor" style="stroke: #A80036; stroke-width: 1.5;" width="403" x="6" y="457.4443"/><ellipse cx="136.25" cy="473.4443" fill="#B4A7E5" rx="11" ry="11" style="stroke: #A80036; stroke-width: 1.0;"/><path d="M132.2656,479.4443 L132.2656,477.8037 L135.1406,477.8037 L135.1406,468.7881 L132.2656,468.7881 L132.2656,467.1631 L140.4688,467.1631 L140.4688,468.7881 L137.5938,468.7881 L137.5938,477.8037 L140.4688,477.8037 L140.4688,479.4443 L132.2656,479.4443 Z "/><text fill="#000000" font-family="sans-serif" font-size="12" font-style="italic" lengthAdjust="spacingAndGlyphs" textLength="122" x="156.75" y="477.8652">BindingScopingVisitor</text><rect fill="#FFFFFF" height="15.9629" style="stroke: #000000; stroke-width: 1.0; stroke-dasharray: 2.0,2.0;" width="10" x="402" y="454.4443"/><text fill="#000000" font-family="sans-serif" font-size="12" font-style="italic" lengthAdjust="spacingAndGlyphs" textLength="8" x="403" y="466.8467">V</text><line style="stroke: #A80036; stroke-width: 1.5;" x1="7" x2="408" y1="489.4443" y2="489.4443"/><line style="stroke: #A80036; stroke-width: 1.5;" x1="7" x2="408" y1="497.4443" y2="497.4443"/><text fill="#000000" font-family="sans-serif" font-size="11" lengthAdjust="spacingAndGlyphs" textLength="123" x="12" y="511.8965">V visitEagerSingleton();</text><text fill="#000000" font-family="sans-serif" font-size="11" lengthAdjust="spacingAndGlyphs" textLength="142" x="12" y="524.6958">V visitScope(Scope scope);</text><text fill="#000000" font-family="sans-serif" font-size="11" lengthAdjust="spacingAndGlyphs" textLength="391" x="12" y="537.4951">V visitScopeAnnotation(Class&lt;? extends Annotation&gt; scopeAnnotation);</text><text fill="#000000" font-family="sans-serif" font-size="11" lengthAdjust="spacingAndGlyphs" textLength="101" x="12" y="550.2944">V visitNoScoping();</text><!--class BindingTargetVisitor--><rect fill="#FEFECE" filter="url(#f1ck1s8wntr9yi)" height="163.1938" id="BindingTargetVisitor" style="stroke: #A80036; stroke-width: 1.5;" width="323" x="478" y="617.4443"/><ellipse cx="563.25" cy="633.4443" fill="#B4A7E5" rx="11" ry="11" style="stroke: #A80036; stroke-width: 1.0;"/><path d="M559.2656,639.4443 L559.2656,637.8037 L562.1406,637.8037 L562.1406,628.7881 L559.2656,628.7881 L559.2656,627.1631 L567.4688,627.1631 L567.4688,628.7881 L564.5938,628.7881 L564.5938,637.8037 L567.4688,637.8037 L567.4688,639.4443 L559.2656,639.4443 Z "/><text fill="#000000" font-family="sans-serif" font-size="12" font-style="italic" lengthAdjust="spacingAndGlyphs" textLength="116" x="583.75" y="637.8652">BindingTargetVisitor</text><rect fill="#FFFFFF" height="15.9629" style="stroke: #000000; stroke-width: 1.0; stroke-dasharray: 2.0,2.0;" width="26" x="778" y="614.4443"/><text fill="#000000" font-family="sans-serif" font-size="12" font-style="italic" lengthAdjust="spacingAndGlyphs" textLength="24" x="779" y="626.8467">T, V</text><line style="stroke: #A80036; stroke-width: 1.5;" x1="479" x2="800" y1="649.4443" y2="649.4443"/><line style="stroke: #A80036; stroke-width: 1.5;" x1="479" x2="800" y1="657.4443" y2="657.4443"/><text fill="#000000" font-family="sans-serif" font-size="11" lengthAdjust="spacingAndGlyphs" textLength="251" x="484" y="671.8965">V visit(InstanceBinding&lt;? extends T&gt; binding);</text><text fill="#000000" font-family="sans-serif" font-size="11" lengthAdjust="spacingAndGlyphs" textLength="296" x="484" y="684.6958">V visit(ProviderInstanceBinding&lt;? extends T&gt; binding);</text><text fill="#000000" font-family="sans-serif" font-size="11" lengthAdjust="spacingAndGlyphs" textLength="270" x="484" y="697.4951">V visit(ProviderKeyBinding&lt;? extends T&gt; binding);</text><text fill="#000000" font-family="sans-serif" font-size="11" lengthAdjust="spacingAndGlyphs" textLength="260" x="484" y="710.2944">V visit(LinkedKeyBinding&lt;? extends T&gt; binding);</text><text fill="#000000" font-family="sans-serif" font-size="11" lengthAdjust="spacingAndGlyphs" textLength="252" x="484" y="723.0938">V visit(ExposedBinding&lt;? extends T&gt; binding);</text><text fill="#000000" font-family="sans-serif" font-size="11" lengthAdjust="spacingAndGlyphs" textLength="270" x="484" y="735.8931">V visit(UntargettedBinding&lt;? extends T&gt; binding);</text><text fill="#000000" font-family="sans-serif" font-size="11" lengthAdjust="spacingAndGlyphs" textLength="272" x="484" y="748.6924">V visit(ConstructorBinding&lt;? extends T&gt; binding);</text><text fill="#000000" font-family="sans-serif" font-size="11" lengthAdjust="spacingAndGlyphs" textLength="311" x="484" y="761.4917">V visit(ConvertedConstantBinding&lt;? extends T&gt; binding);</text><text fill="#000000" font-family="sans-serif" font-size="11" lengthAdjust="spacingAndGlyphs" textLength="251" x="484" y="774.291">V visit(ProviderBinding&lt;? extends T&gt; binding);</text><!--class DefaultBindingTargetVisitor--><rect fill="#FEFECE" filter="url(#f1ck1s8wntr9yi)" height="73.5986" id="DefaultBindingTargetVisitor" style="stroke: #A80036; stroke-width: 1.5;" width="391" x="444" y="469.9443"/><ellipse cx="542.75" cy="485.9443" fill="#ADD1B2" rx="11" ry="11" style="stroke: #A80036; stroke-width: 1.0;"/><path d="M546.5781,491.6006 Q544.7031,492.2568 542.8906,492.2568 Q540.2969,492.2568 538.7109,490.4756 Q537.125,488.6943 537.125,485.7881 Q537.125,483.1006 538.5313,481.335 Q539.3906,480.2568 540.5078,479.8037 Q541.625,479.3506 543.4063,479.3506 Q545.125,479.3506 546.5781,479.71 L546.5781,481.6943 Q544.7031,480.9912 543.4531,480.9912 Q541.7656,480.9912 540.7734,482.3115 Q539.7813,483.6318 539.7813,485.8662 Q539.7813,487.9131 540.8203,489.21 Q541.8594,490.5068 543.5,490.5068 Q544.8906,490.5068 546.5781,489.7256 L546.5781,491.6006 Z "/><text fill="#000000" font-family="sans-serif" font-size="12" lengthAdjust="spacingAndGlyphs" textLength="157" x="563.25" y="490.3652">DefaultBindingTargetVisitor</text><rect fill="#FFFFFF" height="15.9629" style="stroke: #000000; stroke-width: 1.0; stroke-dasharray: 2.0,2.0;" width="26" x="812" y="466.9443"/><text fill="#000000" font-family="sans-serif" font-size="12" font-style="italic" lengthAdjust="spacingAndGlyphs" textLength="24" x="813" y="479.3467">T, V</text><line style="stroke: #A80036; stroke-width: 1.5;" x1="445" x2="834" y1="501.9443" y2="501.9443"/><line style="stroke: #A80036; stroke-width: 1.5;" x1="445" x2="834" y1="509.9443" y2="509.9443"/><text fill="#000000" font-family="sans-serif" font-size="11" lengthAdjust="spacingAndGlyphs" textLength="379" x="450" y="524.3965">// No-op visitor for subclassing. All interface methods simply delegate</text><text fill="#000000" font-family="sans-serif" font-size="11" lengthAdjust="spacingAndGlyphs" textLength="225" x="450" y="537.1958">to visitOther(Binding), returning its result.</text><!--class Indexer--><rect fill="#FEFECE" filter="url(#f1ck1s8wntr9yi)" height="60.7993" id="Indexer" style="stroke: #A80036; stroke-width: 1.5;" width="294" x="157.25" y="335.4443"/><ellipse cx="278" cy="351.4443" fill="#ADD1B2" rx="11" ry="11" style="stroke: #A80036; stroke-width: 1.0;"/><path d="M281.8281,357.1006 Q279.9531,357.7568 278.1406,357.7568 Q275.5469,357.7568 273.9609,355.9756 Q272.375,354.1943 272.375,351.2881 Q272.375,348.6006 273.7813,346.835 Q274.6406,345.7568 275.7578,345.3037 Q276.875,344.8506 278.6563,344.8506 Q280.375,344.8506 281.8281,345.21 L281.8281,347.1943 Q279.9531,346.4912 278.7031,346.4912 Q277.0156,346.4912 276.0234,347.8115 Q275.0313,349.1318 275.0313,351.3662 Q275.0313,353.4131 276.0703,354.71 Q277.1094,356.0068 278.75,356.0068 Q280.1406,356.0068 281.8281,355.2256 L281.8281,357.1006 Z "/><text fill="#000000" font-family="sans-serif" font-size="12" lengthAdjust="spacingAndGlyphs" textLength="44" x="298.5" y="355.8652">Indexer</text><line style="stroke: #A80036; stroke-width: 1.5;" x1="158.25" x2="450.25" y1="367.4443" y2="367.4443"/><text fill="#000000" font-family="sans-serif" font-size="11" lengthAdjust="spacingAndGlyphs" textLength="282" x="163.25" y="381.8965">// Used by RealMapBinder to de-dupe user bindings.</text><line style="stroke: #A80036; stroke-width: 1.5;" x1="158.25" x2="450.25" y1="388.2437" y2="388.2437"/><!--class BindingProcessor--><rect fill="#FEFECE" filter="url(#f1ck1s8wntr9yi)" height="48" id="BindingProcessor" style="stroke: #A80036; stroke-width: 1.5;" width="130" x="664.25" y="194.9443"/><ellipse cx="679.25" cy="210.9443" fill="#ADD1B2" rx="11" ry="11" style="stroke: #A80036; stroke-width: 1.0;"/><path d="M683.0781,216.6006 Q681.2031,217.2568 679.3906,217.2568 Q676.7969,217.2568 675.2109,215.4756 Q673.625,213.6943 673.625,210.7881 Q673.625,208.1006 675.0313,206.335 Q675.8906,205.2568 677.0078,204.8037 Q678.125,204.3506 679.9063,204.3506 Q681.625,204.3506 683.0781,204.71 L683.0781,206.6943 Q681.2031,205.9912 679.9531,205.9912 Q678.2656,205.9912 677.2734,207.3115 Q676.2813,208.6318 676.2813,210.8662 Q676.2813,212.9131 677.3203,214.21 Q678.3594,215.5068 680,215.5068 Q681.3906,215.5068 683.0781,214.7256 L683.0781,216.6006 Z "/><text fill="#000000" font-family="sans-serif" font-size="12" lengthAdjust="spacingAndGlyphs" textLength="98" x="693.25" y="215.3652">BindingProcessor</text><line style="stroke: #A80036; stroke-width: 1.5;" x1="665.25" x2="793.25" y1="226.9443" y2="226.9443"/><line style="stroke: #A80036; stroke-width: 1.5;" x1="665.25" x2="793.25" y1="234.9443" y2="234.9443"/><!--class AbstractBindingProcessor--><rect fill="#FEFECE" filter="url(#f1ck1s8wntr9yi)" height="48" id="AbstractBindingProcessor" style="stroke: #A80036; stroke-width: 1.5;" width="178" x="730.75" y="341.9443"/><ellipse cx="745.75" cy="357.9443" fill="#ADD1B2" rx="11" ry="11" style="stroke: #A80036; stroke-width: 1.0;"/><path d="M749.5781,363.6006 Q747.7031,364.2568 745.8906,364.2568 Q743.2969,364.2568 741.7109,362.4756 Q740.125,360.6943 740.125,357.7881 Q740.125,355.1006 741.5313,353.335 Q742.3906,352.2568 743.5078,351.8037 Q744.625,351.3506 746.4063,351.3506 Q748.125,351.3506 749.5781,351.71 L749.5781,353.6943 Q747.7031,352.9912 746.4531,352.9912 Q744.7656,352.9912 743.7734,354.3115 Q742.7813,355.6318 742.7813,357.8662 Q742.7813,359.9131 743.8203,361.21 Q744.8594,362.5068 746.5,362.5068 Q747.8906,362.5068 749.5781,361.7256 L749.5781,363.6006 Z "/><text fill="#000000" font-family="sans-serif" font-size="12" lengthAdjust="spacingAndGlyphs" textLength="146" x="759.75" y="362.3652">AbstractBindingProcessor</text><line style="stroke: #A80036; stroke-width: 1.5;" x1="731.75" x2="907.75" y1="373.9443" y2="373.9443"/><line style="stroke: #A80036; stroke-width: 1.5;" x1="731.75" x2="907.75" y1="381.9443" y2="381.9443"/><!--class AbstractProcessor--><rect fill="#FEFECE" filter="url(#f1ck1s8wntr9yi)" height="60.7993" id="AbstractProcessor" style="stroke: #A80036; stroke-width: 1.5;" width="178" x="959.75" y="476.4443"/><ellipse cx="993.65" cy="492.4443" fill="#ADD1B2" rx="11" ry="11" style="stroke: #A80036; stroke-width: 1.0;"/><path d="M997.4781,498.1006 Q995.6031,498.7568 993.7906,498.7568 Q991.1969,498.7568 989.6109,496.9756 Q988.025,495.1943 988.025,492.2881 Q988.025,489.6006 989.4313,487.835 Q990.2906,486.7568 991.4078,486.3037 Q992.525,485.8506 994.3063,485.8506 Q996.025,485.8506 997.4781,486.21 L997.4781,488.1943 Q995.6031,487.4912 994.3531,487.4912 Q992.6656,487.4912 991.6734,488.8115 Q990.6813,490.1318 990.6813,492.3662 Q990.6813,494.4131 991.7203,495.71 Q992.7594,497.0068 994.4,497.0068 Q995.7906,497.0068 997.4781,496.2256 L997.4781,498.1006 Z "/><text fill="#000000" font-family="sans-serif" font-size="12" lengthAdjust="spacingAndGlyphs" textLength="104" x="1011.85" y="496.8652">AbstractProcessor</text><line style="stroke: #A80036; stroke-width: 1.5;" x1="960.75" x2="1136.75" y1="508.4443" y2="508.4443"/><text fill="#000000" font-family="sans-serif" font-size="11" lengthAdjust="spacingAndGlyphs" textLength="166" x="965.75" y="522.8965">protected InjectorImpl injector;</text><line style="stroke: #A80036; stroke-width: 1.5;" x1="960.75" x2="1136.75" y1="529.2437" y2="529.2437"/><!--class DefaultElementVisitor--><rect fill="#FEFECE" filter="url(#f1ck1s8wntr9yi)" height="48" id="DefaultElementVisitor" style="stroke: #A80036; stroke-width: 1.5;" width="167" x="900" y="674.9443"/><ellipse cx="915" cy="690.9443" fill="#ADD1B2" rx="11" ry="11" style="stroke: #A80036; stroke-width: 1.0;"/><path d="M918.8281,696.6006 Q916.9531,697.2568 915.1406,697.2568 Q912.5469,697.2568 910.9609,695.4756 Q909.375,693.6943 909.375,690.7881 Q909.375,688.1006 910.7813,686.335 Q911.6406,685.2568 912.7578,684.8037 Q913.875,684.3506 915.6563,684.3506 Q917.375,684.3506 918.8281,684.71 L918.8281,686.6943 Q916.9531,685.9912 915.7031,685.9912 Q914.0156,685.9912 913.0234,687.3115 Q912.0313,688.6318 912.0313,690.8662 Q912.0313,692.9131 913.0703,694.21 Q914.1094,695.5068 915.75,695.5068 Q917.1406,695.5068 918.8281,694.7256 L918.8281,696.6006 Z "/><text fill="#000000" font-family="sans-serif" font-size="12" lengthAdjust="spacingAndGlyphs" textLength="123" x="929" y="695.3652">DefaultElementVisitor</text><rect fill="#FFFFFF" height="15.9629" style="stroke: #000000; stroke-width: 1.0; stroke-dasharray: 2.0,2.0;" width="10" x="1060" y="671.9443"/><text fill="#000000" font-family="sans-serif" font-size="12" font-style="italic" lengthAdjust="spacingAndGlyphs" textLength="8" x="1061" y="684.3467">V</text><line style="stroke: #A80036; stroke-width: 1.5;" x1="901" x2="1066" y1="706.9443" y2="706.9443"/><line style="stroke: #A80036; stroke-width: 1.5;" x1="901" x2="1066" y1="714.9443" y2="714.9443"/><!--class ElementVisitor--><rect fill="#FEFECE" filter="url(#f1ck1s8wntr9yi)" height="265.5884" id="ElementVisitor" style="stroke: #A80036; stroke-width: 1.5;" width="317" x="767" y="846.9443"/><ellipse cx="874.25" cy="862.9443" fill="#B4A7E5" rx="11" ry="11" style="stroke: #A80036; stroke-width: 1.0;"/><path d="M870.2656,868.9443 L870.2656,867.3037 L873.1406,867.3037 L873.1406,858.2881 L870.2656,858.2881 L870.2656,856.6631 L878.4688,856.6631 L878.4688,858.2881 L875.5938,858.2881 L875.5938,867.3037 L878.4688,867.3037 L878.4688,868.9443 L870.2656,868.9443 Z "/><text fill="#000000" font-family="sans-serif" font-size="12" font-style="italic" lengthAdjust="spacingAndGlyphs" textLength="82" x="894.75" y="867.3652">ElementVisitor</text><rect fill="#FFFFFF" height="15.9629" style="stroke: #000000; stroke-width: 1.0; stroke-dasharray: 2.0,2.0;" width="10" x="1077" y="843.9443"/><text fill="#000000" font-family="sans-serif" font-size="12" font-style="italic" lengthAdjust="spacingAndGlyphs" textLength="8" x="1078" y="856.3467">V</text><line style="stroke: #A80036; stroke-width: 1.5;" x1="768" x2="1083" y1="878.9443" y2="878.9443"/><line style="stroke: #A80036; stroke-width: 1.5;" x1="768" x2="1083" y1="886.9443" y2="886.9443"/><text fill="#000000" font-family="sans-serif" font-size="11" lengthAdjust="spacingAndGlyphs" textLength="180" x="773" y="901.3965">&lt;T&gt; V visit(Binding&lt;T&gt; binding);</text><text fill="#000000" font-family="sans-serif" font-size="11" lengthAdjust="spacingAndGlyphs" textLength="184" x="773" y="914.1958">V visit(InterceptorBinding binding)</text><text fill="#000000" font-family="sans-serif" font-size="11" lengthAdjust="spacingAndGlyphs" textLength="159" x="773" y="926.9951">V visit(ScopeBinding binding);</text><text fill="#000000" font-family="sans-serif" font-size="11" lengthAdjust="spacingAndGlyphs" textLength="207" x="773" y="939.7944">V visit(TypeConverterBinding binding);</text><text fill="#000000" font-family="sans-serif" font-size="11" lengthAdjust="spacingAndGlyphs" textLength="199" x="773" y="952.5938">V visit(InjectionRequest&lt;?&gt; request);</text><text fill="#000000" font-family="sans-serif" font-size="11" lengthAdjust="spacingAndGlyphs" textLength="205" x="773" y="965.3931">V visit(StaticInjectionRequest request);</text><text fill="#000000" font-family="sans-serif" font-size="11" lengthAdjust="spacingAndGlyphs" textLength="221" x="773" y="978.1924">&lt;T&gt; V visit(ProviderLookup&lt;T&gt; lookup);</text><text fill="#000000" font-family="sans-serif" font-size="11" lengthAdjust="spacingAndGlyphs" textLength="266" x="773" y="990.9917">&lt;T&gt; V visit(MembersInjectorLookup&lt;T&gt; lookup);</text><text fill="#000000" font-family="sans-serif" font-size="11" lengthAdjust="spacingAndGlyphs" textLength="139" x="773" y="1003.791">V visit(Message message);</text><text fill="#000000" font-family="sans-serif" font-size="11" lengthAdjust="spacingAndGlyphs" textLength="178" x="773" y="1016.5903">V visit(PrivateElements elements);</text><text fill="#000000" font-family="sans-serif" font-size="11" lengthAdjust="spacingAndGlyphs" textLength="196" x="773" y="1029.3896">V visit(TypeListenerBinding binding);</text><text fill="#000000" font-family="sans-serif" font-size="11" lengthAdjust="spacingAndGlyphs" textLength="220" x="773" y="1042.189">V visit(ProvisionListenerBinding binding);</text><text fill="#000000" font-family="sans-serif" font-size="11" lengthAdjust="spacingAndGlyphs" textLength="244" x="773" y="1054.9883">V visit(RequireExplicitBindingsOption option);</text><text fill="#000000" font-family="sans-serif" font-size="11" lengthAdjust="spacingAndGlyphs" textLength="240" x="773" y="1067.7876">V visit(DisableCircularProxiesOption option);</text><text fill="#000000" font-family="sans-serif" font-size="11" lengthAdjust="spacingAndGlyphs" textLength="288" x="773" y="1080.5869">V visit(RequireAtInjectOnConstructorsOption option);</text><text fill="#000000" font-family="sans-serif" font-size="11" lengthAdjust="spacingAndGlyphs" textLength="294" x="773" y="1093.3862">V visit(RequireExactBindingAnnotationsOption option);</text><text fill="#000000" font-family="sans-serif" font-size="11" lengthAdjust="spacingAndGlyphs" textLength="305" x="773" y="1106.1855">V visit(ModuleAnnotatedMethodScannerBinding binding);</text><!--class LookupProcessor--><rect fill="#FEFECE" filter="url(#f1ck1s8wntr9yi)" height="48" id="LookupProcessor" style="stroke: #A80036; stroke-width: 1.5;" width="130" x="943.25" y="341.9443"/><ellipse cx="958.25" cy="357.9443" fill="#ADD1B2" rx="11" ry="11" style="stroke: #A80036; stroke-width: 1.0;"/><path d="M962.0781,363.6006 Q960.2031,364.2568 958.3906,364.2568 Q955.7969,364.2568 954.2109,362.4756 Q952.625,360.6943 952.625,357.7881 Q952.625,355.1006 954.0313,353.335 Q954.8906,352.2568 956.0078,351.8037 Q957.125,351.3506 958.9063,351.3506 Q960.625,351.3506 962.0781,351.71 L962.0781,353.6943 Q960.2031,352.9912 958.9531,352.9912 Q957.2656,352.9912 956.2734,354.3115 Q955.2813,355.6318 955.2813,357.8662 Q955.2813,359.9131 956.3203,361.21 Q957.3594,362.5068 959,362.5068 Q960.3906,362.5068 962.0781,361.7256 L962.0781,363.6006 Z "/><text fill="#000000" font-family="sans-serif" font-size="12" lengthAdjust="spacingAndGlyphs" textLength="98" x="972.25" y="362.3652">LookupProcessor</text><line style="stroke: #A80036; stroke-width: 1.5;" x1="944.25" x2="1072.25" y1="373.9443" y2="373.9443"/><line style="stroke: #A80036; stroke-width: 1.5;" x1="944.25" x2="1072.25" y1="381.9443" y2="381.9443"/><!--class MessageProcessor--><rect fill="#FEFECE" filter="url(#f1ck1s8wntr9yi)" height="48" id="MessageProcessor" style="stroke: #A80036; stroke-width: 1.5;" width="138" x="1108.25" y="341.9443"/><ellipse cx="1123.25" cy="357.9443" fill="#ADD1B2" rx="11" ry="11" style="stroke: #A80036; stroke-width: 1.0;"/><path d="M1127.0781,363.6006 Q1125.2031,364.2568 1123.3906,364.2568 Q1120.7969,364.2568 1119.2109,362.4756 Q1117.625,360.6943 1117.625,357.7881 Q1117.625,355.1006 1119.0313,353.335 Q1119.8906,352.2568 1121.0078,351.8037 Q1122.125,351.3506 1123.9063,351.3506 Q1125.625,351.3506 1127.0781,351.71 L1127.0781,353.6943 Q1125.2031,352.9912 1123.9531,352.9912 Q1122.2656,352.9912 1121.2734,354.3115 Q1120.2813,355.6318 1120.2813,357.8662 Q1120.2813,359.9131 1121.3203,361.21 Q1122.3594,362.5068 1124,362.5068 Q1125.3906,362.5068 1127.0781,361.7256 L1127.0781,363.6006 Z "/><text fill="#000000" font-family="sans-serif" font-size="12" lengthAdjust="spacingAndGlyphs" textLength="106" x="1137.25" y="362.3652">MessageProcessor</text><line style="stroke: #A80036; stroke-width: 1.5;" x1="1109.25" x2="1245.25" y1="373.9443" y2="373.9443"/><line style="stroke: #A80036; stroke-width: 1.5;" x1="1109.25" x2="1245.25" y1="381.9443" y2="381.9443"/><!--class Processor--><rect fill="#FEFECE" filter="url(#f1ck1s8wntr9yi)" height="48" id="Processor" style="stroke: #A80036; stroke-width: 1.5;" width="112" x="583.75" y="341.9443"/><ellipse cx="598.75" cy="357.9443" fill="#ADD1B2" rx="11" ry="11" style="stroke: #A80036; stroke-width: 1.0;"/><path d="M602.5781,363.6006 Q600.7031,364.2568 598.8906,364.2568 Q596.2969,364.2568 594.7109,362.4756 Q593.125,360.6943 593.125,357.7881 Q593.125,355.1006 594.5313,353.335 Q595.3906,352.2568 596.5078,351.8037 Q597.625,351.3506 599.4063,351.3506 Q601.125,351.3506 602.5781,351.71 L602.5781,353.6943 Q600.7031,352.9912 599.4531,352.9912 Q597.7656,352.9912 596.7734,354.3115 Q595.7813,355.6318 595.7813,357.8662 Q595.7813,359.9131 596.8203,361.21 Q597.8594,362.5068 599.5,362.5068 Q600.8906,362.5068 602.5781,361.7256 L602.5781,363.6006 Z "/><text fill="#000000" font-family="sans-serif" font-size="12" lengthAdjust="spacingAndGlyphs" textLength="56" x="612.75" y="362.3652">Processor</text><rect fill="#FFFFFF" height="15.9629" style="stroke: #000000; stroke-width: 1.0; stroke-dasharray: 2.0,2.0;" width="22" x="676.75" y="338.9443"/><text fill="#000000" font-family="sans-serif" font-size="12" font-style="italic" lengthAdjust="spacingAndGlyphs" textLength="20" x="677.75" y="351.3467">T,V</text><line style="stroke: #A80036; stroke-width: 1.5;" x1="584.75" x2="694.75" y1="373.9443" y2="373.9443"/><line style="stroke: #A80036; stroke-width: 1.5;" x1="584.75" x2="694.75" y1="381.9443" y2="381.9443"/><!--class Injector--><rect fill="#FEFECE" filter="url(#f1ck1s8wntr9yi)" height="278.3877" id="Injector" style="stroke: #A80036; stroke-width: 1.5;" width="419" x="1119" y="840.9443"/><ellipse cx="1302.75" cy="856.9443" fill="#B4A7E5" rx="11" ry="11" style="stroke: #A80036; stroke-width: 1.0;"/><path d="M1298.7656,862.9443 L1298.7656,861.3037 L1301.6406,861.3037 L1301.6406,852.2881 L1298.7656,852.2881 L1298.7656,850.6631 L1306.9688,850.6631 L1306.9688,852.2881 L1304.0938,852.2881 L1304.0938,861.3037 L1306.9688,861.3037 L1306.9688,862.9443 L1298.7656,862.9443 Z "/><text fill="#000000" font-family="sans-serif" font-size="12" font-style="italic" lengthAdjust="spacingAndGlyphs" textLength="43" x="1323.25" y="861.3652">Injector</text><line style="stroke: #A80036; stroke-width: 1.5;" x1="1120" x2="1537" y1="872.9443" y2="872.9443"/><line style="stroke: #A80036; stroke-width: 1.5;" x1="1120" x2="1537" y1="880.9443" y2="880.9443"/><text fill="#000000" font-family="sans-serif" font-size="11" lengthAdjust="spacingAndGlyphs" textLength="198" x="1125" y="895.3965">void injectMembers(Object instance);</text><text fill="#000000" font-family="sans-serif" font-size="11" lengthAdjust="spacingAndGlyphs" textLength="407" x="1125" y="908.1958">&lt;T&gt; MembersInjector&lt;T&gt; getMembersInjector(TypeLiteral&lt;T&gt; typeLiteral);</text><text fill="#000000" font-family="sans-serif" font-size="11" lengthAdjust="spacingAndGlyphs" textLength="344" x="1125" y="920.9951">&lt;T&gt; MembersInjector&lt;T&gt; getMembersInjector(Class&lt;T&gt; type);</text><text fill="#000000" font-family="sans-serif" font-size="11" lengthAdjust="spacingAndGlyphs" textLength="228" x="1125" y="933.7944">Map&lt;Key&lt;?&gt;, Binding&lt;?&gt;&gt; getBindings();</text><text fill="#000000" font-family="sans-serif" font-size="11" lengthAdjust="spacingAndGlyphs" textLength="242" x="1125" y="946.5938">Map&lt;Key&lt;?&gt;, Binding&lt;?&gt;&gt; getAllBindings();</text><text fill="#000000" font-family="sans-serif" font-size="11" lengthAdjust="spacingAndGlyphs" textLength="229" x="1125" y="959.3931">&lt;T&gt; Binding&lt;T&gt; getBinding(Key&lt;T&gt; key);</text><text fill="#000000" font-family="sans-serif" font-size="11" lengthAdjust="spacingAndGlyphs" textLength="244" x="1125" y="972.1924">&lt;T&gt; Binding&lt;T&gt; getBinding(Class&lt;T&gt; type);</text><text fill="#000000" font-family="sans-serif" font-size="11" lengthAdjust="spacingAndGlyphs" textLength="272" x="1125" y="984.9917">&lt;T&gt; Binding&lt;T&gt; getExistingBinding(Key&lt;T&gt; key);</text><text fill="#000000" font-family="sans-serif" font-size="11" lengthAdjust="spacingAndGlyphs" textLength="359" x="1125" y="997.791">&lt;T&gt; List&lt;Binding&lt;T&gt;&gt; findBindingsByType(TypeLiteral&lt;T&gt; type);</text><text fill="#000000" font-family="sans-serif" font-size="11" lengthAdjust="spacingAndGlyphs" textLength="239" x="1125" y="1010.5903">&lt;T&gt; Provider&lt;T&gt; getProvider(Key&lt;T&gt; key);</text><text fill="#000000" font-family="sans-serif" font-size="11" lengthAdjust="spacingAndGlyphs" textLength="254" x="1125" y="1023.3896">&lt;T&gt; Provider&lt;T&gt; getProvider(Class&lt;T&gt; type);</text><text fill="#000000" font-family="sans-serif" font-size="11" lengthAdjust="spacingAndGlyphs" textLength="176" x="1125" y="1036.189">&lt;T&gt; T getInstance(Key&lt;T&gt; key);</text><text fill="#000000" font-family="sans-serif" font-size="11" lengthAdjust="spacingAndGlyphs" textLength="191" x="1125" y="1048.9883">&lt;T&gt; T getInstance(Class&lt;T&gt; type);</text><text fill="#000000" font-family="sans-serif" font-size="11" lengthAdjust="spacingAndGlyphs" textLength="106" x="1125" y="1061.7876">Injector getParent();</text><text fill="#000000" font-family="sans-serif" font-size="11" lengthAdjust="spacingAndGlyphs" textLength="357" x="1125" y="1074.5869">Injector createChildInjector(Iterable&lt;? extends Module&gt; modules);</text><text fill="#000000" font-family="sans-serif" font-size="11" lengthAdjust="spacingAndGlyphs" textLength="254" x="1125" y="1087.3862">Injector createChildInjector(Module... modules);</text><text fill="#000000" font-family="sans-serif" font-size="11" lengthAdjust="spacingAndGlyphs" textLength="348" x="1125" y="1100.1855">Map&lt;Class&lt;? extends Annotation&gt;, Scope&gt; getScopeBindings();</text><text fill="#000000" font-family="sans-serif" font-size="11" lengthAdjust="spacingAndGlyphs" textLength="311" x="1125" y="1112.9849">Set&lt;TypeConverterBinding&gt; getTypeConverterBindings();</text><!--class InjectorImpl--><rect fill="#FEFECE" filter="url(#f1ck1s8wntr9yi)" height="48" id="InjectorImpl" style="stroke: #A80036; stroke-width: 1.5;" width="100" x="1219.25" y="674.9443"/><ellipse cx="1234.25" cy="690.9443" fill="#ADD1B2" rx="11" ry="11" style="stroke: #A80036; stroke-width: 1.0;"/><path d="M1238.0781,696.6006 Q1236.2031,697.2568 1234.3906,697.2568 Q1231.7969,697.2568 1230.2109,695.4756 Q1228.625,693.6943 1228.625,690.7881 Q1228.625,688.1006 1230.0313,686.335 Q1230.8906,685.2568 1232.0078,684.8037 Q1233.125,684.3506 1234.9063,684.3506 Q1236.625,684.3506 1238.0781,684.71 L1238.0781,686.6943 Q1236.2031,685.9912 1234.9531,685.9912 Q1233.2656,685.9912 1232.2734,687.3115 Q1231.2813,688.6318 1231.2813,690.8662 Q1231.2813,692.9131 1232.3203,694.21 Q1233.3594,695.5068 1235,695.5068 Q1236.3906,695.5068 1238.0781,694.7256 L1238.0781,696.6006 Z "/><text fill="#000000" font-family="sans-serif" font-size="12" lengthAdjust="spacingAndGlyphs" textLength="68" x="1248.25" y="695.3652">InjectorImpl</text><line style="stroke: #A80036; stroke-width: 1.5;" x1="1220.25" x2="1318.25" y1="706.9443" y2="706.9443"/><line style="stroke: #A80036; stroke-width: 1.5;" x1="1220.25" x2="1318.25" y1="714.9443" y2="714.9443"/><!--class InjectionRequestProcessor--><rect fill="#FEFECE" filter="url(#f1ck1s8wntr9yi)" height="48" id="InjectionRequestProcessor" style="stroke: #A80036; stroke-width: 1.5;" width="183" x="1282" y="341.9443"/><ellipse cx="1297" cy="357.9443" fill="#ADD1B2" rx="11" ry="11" style="stroke: #A80036; stroke-width: 1.0;"/><path d="M1300.8281,363.6006 Q1298.9531,364.2568 1297.1406,364.2568 Q1294.5469,364.2568 1292.9609,362.4756 Q1291.375,360.6943 1291.375,357.7881 Q1291.375,355.1006 1292.7813,353.335 Q1293.6406,352.2568 1294.7578,351.8037 Q1295.875,351.3506 1297.6563,351.3506 Q1299.375,351.3506 1300.8281,351.71 L1300.8281,353.6943 Q1298.9531,352.9912 1297.7031,352.9912 Q1296.0156,352.9912 1295.0234,354.3115 Q1294.0313,355.6318 1294.0313,357.8662 Q1294.0313,359.9131 1295.0703,361.21 Q1296.1094,362.5068 1297.75,362.5068 Q1299.1406,362.5068 1300.8281,361.7256 L1300.8281,363.6006 Z "/><text fill="#000000" font-family="sans-serif" font-size="12" lengthAdjust="spacingAndGlyphs" textLength="151" x="1311" y="362.3652">InjectionRequestProcessor</text><line style="stroke: #A80036; stroke-width: 1.5;" x1="1283" x2="1464" y1="373.9443" y2="373.9443"/><line style="stroke: #A80036; stroke-width: 1.5;" x1="1283" x2="1464" y1="381.9443" y2="381.9443"/><!--class InternalInjectorCreator--><rect fill="#FEFECE" filter="url(#f1ck1s8wntr9yi)" height="73.5986" id="InternalInjectorCreator" style="stroke: #A80036; stroke-width: 1.5;" width="370" x="1188.75" y="181.9443"/><ellipse cx="1305" cy="197.9443" fill="#ADD1B2" rx="11" ry="11" style="stroke: #A80036; stroke-width: 1.0;"/><path d="M1308.8281,203.6006 Q1306.9531,204.2568 1305.1406,204.2568 Q1302.5469,204.2568 1300.9609,202.4756 Q1299.375,200.6943 1299.375,197.7881 Q1299.375,195.1006 1300.7813,193.335 Q1301.6406,192.2568 1302.7578,191.8037 Q1303.875,191.3506 1305.6563,191.3506 Q1307.375,191.3506 1308.8281,191.71 L1308.8281,193.6943 Q1306.9531,192.9912 1305.7031,192.9912 Q1304.0156,192.9912 1303.0234,194.3115 Q1302.0313,195.6318 1302.0313,197.8662 Q1302.0313,199.9131 1303.0703,201.21 Q1304.1094,202.5068 1305.75,202.5068 Q1307.1406,202.5068 1308.8281,201.7256 L1308.8281,203.6006 Z "/><text fill="#000000" font-family="sans-serif" font-size="12" lengthAdjust="spacingAndGlyphs" textLength="129" x="1325.5" y="202.3652">InternalInjectorCreator</text><line style="stroke: #A80036; stroke-width: 1.5;" x1="1189.75" x2="1557.75" y1="213.9443" y2="213.9443"/><text fill="#000000" font-family="sans-serif" font-size="11" lengthAdjust="spacingAndGlyphs" textLength="358" x="1194.75" y="228.3965">private final InjectionRequestProcessor injectionRequestProcessor;</text><text fill="#000000" font-family="sans-serif" font-size="11" lengthAdjust="spacingAndGlyphs" textLength="170" x="1194.75" y="241.1958">private final Initializer initializer;</text><line style="stroke: #A80036; stroke-width: 1.5;" x1="1189.75" x2="1557.75" y1="247.543" y2="247.543"/><!--class Guice--><rect fill="#FEFECE" filter="url(#f1ck1s8wntr9yi)" height="60.7993" id="Guice" style="stroke: #A80036; stroke-width: 1.5;" width="306" x="1220.25" y="35.4443"/><ellipse cx="1353" cy="51.4443" fill="#ADD1B2" rx="11" ry="11" style="stroke: #A80036; stroke-width: 1.0;"/><path d="M1356.8281,57.1006 Q1354.9531,57.7568 1353.1406,57.7568 Q1350.5469,57.7568 1348.9609,55.9756 Q1347.375,54.1943 1347.375,51.2881 Q1347.375,48.6006 1348.7813,46.835 Q1349.6406,45.7568 1350.7578,45.3037 Q1351.875,44.8506 1353.6563,44.8506 Q1355.375,44.8506 1356.8281,45.21 L1356.8281,47.1943 Q1354.9531,46.4912 1353.7031,46.4912 Q1352.0156,46.4912 1351.0234,47.8115 Q1350.0313,49.1318 1350.0313,51.3662 Q1350.0313,53.4131 1351.0703,54.71 Q1352.1094,56.0068 1353.75,56.0068 Q1355.1406,56.0068 1356.8281,55.2256 L1356.8281,57.1006 Z "/><text fill="#000000" font-family="sans-serif" font-size="12" lengthAdjust="spacingAndGlyphs" textLength="32" x="1373.5" y="55.8652">Guice</text><line style="stroke: #A80036; stroke-width: 1.5;" x1="1221.25" x2="1525.25" y1="67.4443" y2="67.4443"/><line style="stroke: #A80036; stroke-width: 1.5;" x1="1221.25" x2="1525.25" y1="75.4443" y2="75.4443"/><text fill="#000000" font-family="sans-serif" font-size="11" lengthAdjust="spacingAndGlyphs" textLength="294" x="1226.25" y="89.8965">public static Injector createInjector(Module... modules);</text><!--class InjectionPoint--><rect fill="#FEFECE" filter="url(#f1ck1s8wntr9yi)" height="73.5986" id="InjectionPoint" style="stroke: #A80036; stroke-width: 1.5;" width="340" x="1561.25" y="28.9443"/><ellipse cx="1689" cy="44.9443" fill="#ADD1B2" rx="11" ry="11" style="stroke: #A80036; stroke-width: 1.0;"/><path d="M1692.8281,50.6006 Q1690.9531,51.2568 1689.1406,51.2568 Q1686.5469,51.2568 1684.9609,49.4756 Q1683.375,47.6943 1683.375,44.7881 Q1683.375,42.1006 1684.7813,40.335 Q1685.6406,39.2568 1686.7578,38.8037 Q1687.875,38.3506 1689.6563,38.3506 Q1691.375,38.3506 1692.8281,38.71 L1692.8281,40.6943 Q1690.9531,39.9912 1689.7031,39.9912 Q1688.0156,39.9912 1687.0234,41.3115 Q1686.0313,42.6318 1686.0313,44.8662 Q1686.0313,46.9131 1687.0703,48.21 Q1688.1094,49.5068 1689.75,49.5068 Q1691.1406,49.5068 1692.8281,48.7256 L1692.8281,50.6006 Z "/><text fill="#000000" font-family="sans-serif" font-size="12" lengthAdjust="spacingAndGlyphs" textLength="76" x="1709.5" y="49.3652">InjectionPoint</text><line style="stroke: #A80036; stroke-width: 1.5;" x1="1562.25" x2="1900.25" y1="60.9443" y2="60.9443"/><text fill="#000000" font-family="sans-serif" font-size="11" lengthAdjust="spacingAndGlyphs" textLength="230" x="1567.25" y="75.3965">private final TypeLiteral&lt;?&gt; declaringType;</text><text fill="#000000" font-family="sans-serif" font-size="11" lengthAdjust="spacingAndGlyphs" textLength="328" x="1567.25" y="88.1958">private final ImmutableList&lt;Dependency&lt;?&gt;&gt; dependencies;</text><line style="stroke: #A80036; stroke-width: 1.5;" x1="1562.25" x2="1900.25" y1="94.543" y2="94.543"/><!--class Dependency--><rect fill="#FEFECE" filter="url(#f1ck1s8wntr9yi)" height="111.9966" id="Dependency" style="stroke: #A80036; stroke-width: 1.5;" width="243" x="1610" y="162.9443"/><ellipse cx="1691.25" cy="178.9443" fill="#ADD1B2" rx="11" ry="11" style="stroke: #A80036; stroke-width: 1.0;"/><path d="M1695.0781,184.6006 Q1693.2031,185.2568 1691.3906,185.2568 Q1688.7969,185.2568 1687.2109,183.4756 Q1685.625,181.6943 1685.625,178.7881 Q1685.625,176.1006 1687.0313,174.335 Q1687.8906,173.2568 1689.0078,172.8037 Q1690.125,172.3506 1691.9063,172.3506 Q1693.625,172.3506 1695.0781,172.71 L1695.0781,174.6943 Q1693.2031,173.9912 1691.9531,173.9912 Q1690.2656,173.9912 1689.2734,175.3115 Q1688.2813,176.6318 1688.2813,178.8662 Q1688.2813,180.9131 1689.3203,182.21 Q1690.3594,183.5068 1692,183.5068 Q1693.3906,183.5068 1695.0781,182.7256 L1695.0781,184.6006 Z "/><text fill="#000000" font-family="sans-serif" font-size="12" lengthAdjust="spacingAndGlyphs" textLength="72" x="1711.75" y="183.3652">Dependency</text><line style="stroke: #A80036; stroke-width: 1.5;" x1="1611" x2="1852" y1="194.9443" y2="194.9443"/><text fill="#000000" font-family="sans-serif" font-size="11" lengthAdjust="spacingAndGlyphs" textLength="231" x="1616" y="209.3965">//A reverse reference to the injection point</text><text fill="#000000" font-family="sans-serif" font-size="11" lengthAdjust="spacingAndGlyphs" textLength="197" x="1616" y="222.1958">//which this dependency belongs to.</text><text fill="#000000" font-family="sans-serif" font-size="11" lengthAdjust="spacingAndGlyphs" textLength="218" x="1616" y="234.9951">private final InjectionPoint injectionPoint;</text><text fill="#000000" font-family="sans-serif" font-size="11" lengthAdjust="spacingAndGlyphs" textLength="134" x="1616" y="247.7944">private final Key&lt;T&gt; key;</text><text fill="#000000" font-family="sans-serif" font-size="11" lengthAdjust="spacingAndGlyphs" textLength="171" x="1616" y="260.5938">private final int parameterIndex;</text><line style="stroke: #A80036; stroke-width: 1.5;" x1="1611" x2="1852" y1="266.9409" y2="266.9409"/><!--link DefaultBindingTargetVisitor to BindingTargetVisitor--><path d="M639.25,544.1293 C639.25,559.4703 639.25,578.1863 639.25,597.2093 " fill="none" id="DefaultBindingTargetVisitor-BindingTargetVisitor" style="stroke: #A80036; stroke-width: 1.0;"/><polygon fill="none" points="646.25,597.4203,639.25,617.4203,632.25,597.4203,646.25,597.4203" style="stroke: #A80036; stroke-width: 1.0;"/><!--link Indexer to BindingScopingVisitor--><path d="M283.441,396.7633 C274.406,409.7103 263.444,425.4193 252.683,440.8393 " fill="none" id="Indexer-BindingScopingVisitor" style="stroke: #A80036; stroke-width: 1.0;"/><polygon fill="none" points="258.373,444.9173,241.187,457.3133,246.892,436.9053,258.373,444.9173" style="stroke: #A80036; stroke-width: 1.0;"/><!--link Indexer to DefaultBindingTargetVisitor--><path d="M375.705,396.5923 C421.742,415.6953 482.4,440.8633 533.915,462.2383 " fill="none" id="Indexer-DefaultBindingTargetVisitor" style="stroke: #A80036; stroke-width: 1.0; stroke-dasharray: 7.0,7.0;"/><polygon fill="none" points="536.647,455.7933,552.437,469.9233,531.281,468.7243,536.647,455.7933" style="stroke: #A80036; stroke-width: 1.0;"/><!--link BindingProcessor to AbstractBindingProcessor--><path d="M743.71,243.2413 C757.29,265.1203 777.897,298.3193 794.159,324.5193 " fill="none" id="BindingProcessor-AbstractBindingProcessor" style="stroke: #A80036; stroke-width: 1.0; stroke-dasharray: 7.0,7.0;"/><polygon fill="none" points="800.226,321.0213,804.826,341.7053,788.331,328.4043,800.226,321.0213" style="stroke: #A80036; stroke-width: 1.0;"/><!--link AbstractBindingProcessor to AbstractProcessor--><path d="M857.322,390.0533 C891.223,410.6303 941.574,441.1933 982.059,465.7673 " fill="none" id="AbstractBindingProcessor-AbstractProcessor" style="stroke: #A80036; stroke-width: 1.0; stroke-dasharray: 7.0,7.0;"/><polygon fill="none" points="985.834,459.8693,999.298,476.2313,978.569,471.8373,985.834,459.8693" style="stroke: #A80036; stroke-width: 1.0;"/><!--link AbstractProcessor to DefaultElementVisitor--><path d="M1038.09,537.6323 C1027.26,569.3023 1010,619.7433 997.743,655.5803 " fill="none" id="AbstractProcessor-DefaultElementVisitor" style="stroke: #A80036; stroke-width: 1.0; stroke-dasharray: 7.0,7.0;"/><polygon fill="none" points="1004.285,658.0843,991.188,674.7413,991.038,653.5523,1004.285,658.0843" style="stroke: #A80036; stroke-width: 1.0;"/><!--link DefaultElementVisitor to ElementVisitor--><path d="M978.405,723.2523 C973.445,747.1103 965.285,786.3603 956.831,827.0293 " fill="none" id="DefaultElementVisitor-ElementVisitor" style="stroke: #A80036; stroke-width: 1.0;"/><polygon fill="none" points="963.661,828.5673,952.737,846.7233,949.954,825.7173,963.661,828.5673" style="stroke: #A80036; stroke-width: 1.0;"/><!--link LookupProcessor to AbstractProcessor--><path d="M1014.95,390.2093 C1020.18,408.4083 1027.65,434.3483 1034.18,457.0583 " fill="none" id="LookupProcessor-AbstractProcessor" style="stroke: #A80036; stroke-width: 1.0; stroke-dasharray: 7.0,7.0;"/><polygon fill="none" points="1040.92,455.1443,1039.72,476.2993,1027.46,459.0153,1040.92,455.1443" style="stroke: #A80036; stroke-width: 1.0;"/><!--link MessageProcessor to AbstractProcessor--><path d="M1155.66,390.2093 C1137.65,409.6093 1111.49,437.8053 1089.49,461.5093 " fill="none" id="MessageProcessor-AbstractProcessor" style="stroke: #A80036; stroke-width: 1.0; stroke-dasharray: 7.0,7.0;"/><polygon fill="none" points="1094.5,466.4023,1075.76,476.2993,1084.24,456.8783,1094.5,466.4023" style="stroke: #A80036; stroke-width: 1.0;"/><!--link Processor to DefaultBindingTargetVisitor--><path d="M639.25,390.2093 C639.25,406.4123 639.25,428.7513 639.25,449.4843 " fill="none" id="Processor-DefaultBindingTargetVisitor" style="stroke: #A80036; stroke-width: 1.0; stroke-dasharray: 7.0,7.0;"/><polygon fill="none" points="646.25,449.7883,639.25,469.7883,632.25,449.7883,646.25,449.7883" style="stroke: #A80036; stroke-width: 1.0;"/><!--link BindingProcessor to Processor--><path d="M714.79,243.2413 C698.913,268.8203 673.434,309.8703 656.52,337.1203 " fill="none" id="BindingProcessor-Processor" style="stroke: #A80036; stroke-width: 1.0; stroke-dasharray: 7.0,7.0;"/><polygon fill="#A80036" points="653.674,341.7053,661.8189,336.1682,656.3109,337.4572,655.0219,331.9491,653.674,341.7053" style="stroke: #A80036; stroke-width: 1.0;"/><!--link InjectorImpl to Injector--><path d="M1274.18,723.2523 C1278.98,745.9393 1286.72,782.5453 1294.86,821.0543 " fill="none" id="InjectorImpl-Injector" style="stroke: #A80036; stroke-width: 1.0;"/><polygon fill="none" points="1301.72,819.6623,1299.01,840.6773,1288.02,822.5583,1301.72,819.6623" style="stroke: #A80036; stroke-width: 1.0;"/><!--link AbstractProcessor to InjectorImpl--><path d="M1092.8,546.2443 C1137.55,584.7183 1205.06,642.7563 1242.26,674.7413 " fill="none" id="AbstractProcessor-InjectorImpl" style="stroke: #A80036; stroke-width: 1.0; stroke-dasharray: 7.0,7.0;"/><polygon fill="#A80036" points="1082.78,537.6323,1084.718,544.5781,1091.8749,545.4607,1089.9369,538.5149,1082.78,537.6323" style="stroke: #A80036; stroke-width: 1.0;"/><!--link InjectionRequestProcessor to AbstractProcessor--><path d="M1319.22,390.0533 C1269.41,411.3573 1194.57,443.3653 1136.16,468.3483 " fill="none" id="InjectionRequestProcessor-AbstractProcessor" style="stroke: #A80036; stroke-width: 1.0; stroke-dasharray: 7.0,7.0;"/><polygon fill="none" points="1138.57,474.9283,1117.43,476.3573,1133.06,462.0563,1138.57,474.9283" style="stroke: #A80036; stroke-width: 1.0;"/><!--link InternalInjectorCreator to InjectionRequestProcessor--><path d="M1373.25,269.3143 C1373.25,293.8743 1373.25,322.3893 1373.25,341.8483 " fill="none" id="InternalInjectorCreator-InjectionRequestProcessor" style="stroke: #A80036; stroke-width: 1.0; stroke-dasharray: 7.0,7.0;"/><polygon fill="#A80036" points="1373.25,256.1603,1369.25,262.1603,1373.25,268.1603,1377.25,262.1603,1373.25,256.1603" style="stroke: #A80036; stroke-width: 1.0;"/><!--link Guice to InternalInjectorCreator--><path d="M1373.25,96.7743 C1373.25,119.5653 1373.25,151.2453 1373.25,176.4963 " fill="none" id="Guice-InternalInjectorCreator" style="stroke: #A80036; stroke-width: 1.0; stroke-dasharray: 7.0,7.0;"/><polygon fill="#A80036" points="1373.25,181.7823,1377.25,172.7823,1373.25,176.7823,1369.25,172.7823,1373.25,181.7823" style="stroke: #A80036; stroke-width: 1.0;"/><!--link InjectionPoint to Dependency--><path d="M1731.25,103.1143 C1731.25,120.9993 1731.25,142.9713 1731.25,162.8903 " fill="none" id="InjectionPoint-Dependency" style="stroke: #A80036; stroke-width: 1.0;"/><text fill="#000000" font-family="sans-serif" font-size="13" lengthAdjust="spacingAndGlyphs" textLength="8" x="1721.4219" y="122.9091">1</text><text fill="#000000" font-family="sans-serif" font-size="13" lengthAdjust="spacingAndGlyphs" textLength="8" x="1721.6758" y="152.1894">n</text><!--
@startuml
title Guice Class Diagram

interface BindingScopingVisitor<V> {
  V visitEagerSingleton();
  V visitScope(Scope scope);
  V visitScopeAnnotation(Class<? extends Annotation> scopeAnnotation);
  V visitNoScoping();
}

interface BindingTargetVisitor<T, V> {
  V visit(InstanceBinding<? extends T> binding);
  V visit(ProviderInstanceBinding<? extends T> binding);
  V visit(ProviderKeyBinding<? extends T> binding);
  V visit(LinkedKeyBinding<? extends T> binding);
  V visit(ExposedBinding<? extends T> binding);
  V visit(UntargettedBinding<? extends T> binding);
  V visit(ConstructorBinding<? extends T> binding);
  V visit(ConvertedConstantBinding<? extends T> binding);
  V visit(ProviderBinding<? extends T> binding);
}

class DefaultBindingTargetVisitor<T, V> {
	// No-op visitor for subclassing. All interface methods simply delegate\nto visitOther(Binding), returning its result.
}
class Indexer {
	// Used by RealMapBinder to de-dupe user bindings.
}
DefaultBindingTargetVisitor - -|> BindingTargetVisitor
Indexer - -|> BindingScopingVisitor
Indexer ..|> DefaultBindingTargetVisitor


class BindingProcessor {

}

class AbstractBindingProcessor {

}

class AbstractProcessor {
	protected InjectorImpl injector;
}

class DefaultElementVisitor<V> {

}

interface ElementVisitor<V> {
  <T> V visit(Binding<T> binding);
  V visit(InterceptorBinding binding)
  V visit(ScopeBinding binding);
  V visit(TypeConverterBinding binding);
  V visit(InjectionRequest<?> request);
  V visit(StaticInjectionRequest request);
  <T> V visit(ProviderLookup<T> lookup);
  <T> V visit(MembersInjectorLookup<T> lookup);
  V visit(Message message);
  V visit(PrivateElements elements);
  V visit(TypeListenerBinding binding);
  V visit(ProvisionListenerBinding binding);
  V visit(RequireExplicitBindingsOption option);
  V visit(DisableCircularProxiesOption option);
  V visit(RequireAtInjectOnConstructorsOption option);
  V visit(RequireExactBindingAnnotationsOption option);
  V visit(ModuleAnnotatedMethodScannerBinding binding);


}
BindingProcessor ..|> AbstractBindingProcessor
AbstractBindingProcessor ..|> AbstractProcessor
AbstractProcessor ..|> DefaultElementVisitor
DefaultElementVisitor - -|> ElementVisitor


LookupProcessor ..|> AbstractProcessor
MessageProcessor ..|> AbstractProcessor

class Processor<T,V> {
}
Processor ..|> DefaultBindingTargetVisitor
BindingProcessor ..> Processor


interface Injector {
  void injectMembers(Object instance);
  <T> MembersInjector<T> getMembersInjector(TypeLiteral<T> typeLiteral);
  <T> MembersInjector<T> getMembersInjector(Class<T> type);
  Map<Key<?>, Binding<?>> getBindings();
  Map<Key<?>, Binding<?>> getAllBindings();
  <T> Binding<T> getBinding(Key<T> key);
  <T> Binding<T> getBinding(Class<T> type);
  <T> Binding<T> getExistingBinding(Key<T> key);
  <T> List<Binding<T>> findBindingsByType(TypeLiteral<T> type);
  <T> Provider<T> getProvider(Key<T> key);
  <T> Provider<T> getProvider(Class<T> type);
  <T> T getInstance(Key<T> key);
  <T> T getInstance(Class<T> type);
  Injector getParent();
  Injector createChildInjector(Iterable<? extends Module> modules);
  Injector createChildInjector(Module... modules);
  Map<Class<? extends Annotation>, Scope> getScopeBindings();
  Set<TypeConverterBinding> getTypeConverterBindings();
}
InjectorImpl - -|> Injector
AbstractProcessor *.. InjectorImpl
InjectionRequestProcessor ..|> AbstractProcessor

class InternalInjectorCreator {
	private final InjectionRequestProcessor injectionRequestProcessor;
    private final Initializer initializer;
}

class Guice {
 	public static Injector createInjector(Module... modules);
}

InternalInjectorCreator *.. InjectionRequestProcessor
Guice ..> InternalInjectorCreator

class InjectionPoint {
	private final TypeLiteral<?> declaringType;
	private final ImmutableList<Dependency<?>> dependencies;
}

class Dependency {
	//A reverse reference to the injection point\n//which this dependency belongs to.
	private final InjectionPoint injectionPoint;
    private final Key<T> key;
    private final int parameterIndex;
}


InjectionPoint "1" - - "n" Dependency
@enduml

PlantUML version 1.2018.06(Mon May 21 10:34:53 UTC 2018)
(GPLV2 source distribution)
Java Runtime: OpenJDK Runtime Environment
JVM: OpenJDK 64-Bit Server VM
Java Version: 1.8.0_192-b12
Operating System: Linux
OS Version: 4.9.124-0.1.ac.198.71.329.metal1.x86_64
Default Encoding: UTF-8
Language: en
Country: US
--></g></svg>